{"title":"Diary Of A Wimpy Kid 2 Roderick Rules 720p XViD BRRip - DTRG","uid":6442522,"size":2889743570,"categoryP":"video","categoryS":"hd___movies","magnet":"?xt=urn:btih:8353cb23fe5aa87eea1075aba7514c95d113ea45&amp;dn=Diary+Of+A+Wimpy+Kid+2+Roderick+Rules+720p+XViD+BRRip+-+DTRG&amp;tr=udp%3A%2F%2Ftracker.openbittorrent.com%3A80&amp;tr=udp%3A%2F%2Fopen.demonii.com%3A1337&amp;tr=udp%3A%2F%2Ftracker.coppersurfer.tk%3A6969&amp;tr=udp%3A%2F%2Fexodus.desync.com%3A6969","seeders":0,"leechers":1,"uploader":"SAFCukO09","files":3,"time":1306973809,"description":"[center][img]http://www.flix66.com/wp-content/uploads/2011/05/Diary-of-a-Wimpy-Kid-2-Blu-ray.jpg[/img][color=red][size=medium]\n\n[img]http://leetleech.org/images/48874973695367351744.png[/img]\n\n\nFormat                           : AVI\n\nFormat/Info                      : Audio Video Interleave\n\nFormat profile                   : OpenDML\n\nFile size                        : 2.69 GiB\n\nDuration                         : 1h 35mn\n\nOverall bit rate                 : 4 035 Kbps\n\nWriting application              : VirtualDubMod 1.5.10.3 | www.virtualdub-fr.org || (build 2550/release)\n\nWriting library                  : VirtualDubMod build 2550/release\n\nVideo\n\nID                               : 0\nFormat                           : MPEG-4 Visual\nFormat profile                   : Advanced Simple@L5\nFormat settings, BVOP            : 2\nFormat settings, QPel            : No\nFormat settings, GMC             : No warppoints\nFormat settings, Matrix          : Default (H.263)\nMuxing mode                      : Packed bitstream\nCodec ID                         : XVID\nCodec ID/Hint                    : XviD\nDuration                         : 1h 35mn\nBit rate                         : 3 577 Kbps\nWidth                            : 1 280 pixels\nHeight                           : 544 pixels\nDisplay aspect ratio             : 2.35:1\nFrame rate                       : 23.976 fps\nColor space                      : YUV\nChroma subsampling               : 4:2:0\nBit depth                        : 8 bits\nScan type                        : Progressive\nCompression mode                 : Lossy\nBits/(Pixel*Frame)               : 0.214\nStream size                      : 2.38 GiB (89%)\nWriting library                  : XviD 1.2.1 (UTC 2008-12-04)\n\nAudio\n\nID                               : 1\nFormat                           : AC-3\nFormat/Info                      : Audio Coding 3\nMode extension                   : CM (complete main)\nCodec ID                         : 2000\nDuration                         : 1h 35mn\nBit rate mode                    : Constant\nBit rate                         : 448 Kbps\nChannel(s)                       : 6 channels\nChannel positions                : Front: L C R, Side: L R, LFE\nSampling rate                    : 48.0 KHz\nBit depth                        : 16 bits\nCompression mode                 : Lossy\nStream size                      : 306 MiB (11%)\nAlignment                        : Split accross interleaves\nInterleave, duration             : 42 ms (1.00 video frame)\nInterleave, preload duration     : 500 ms\n &lt;a href=&quot;\nhttp://www.imdb.com/title/tt1650043/&quot; rel=&quot;nofollow&quot; target=&quot;_NEW&quot;&gt;\nhttp://www.imdb.com/title/tt1650043/&lt;/a&gt;\n\n[IMG]http://leetleech.org/images/89524873606771859129.png[/IMG]\n\nUsers: 5.3/10 (1,637 votes) 17 reviews | Critics: 66 reviews Metascore: 51/100 (based on 23 reviews from Metacritic.com)\n\nBack in middle school after summer vacation, Greg Heffley and his older brother Rodrick must deal with their parents' misguided attempts to have them bond.\n\nDirector:David Bowers\n\nWriters: Gabe Sachs (screenplay), Jeff Judah (screenplay), and 1 more credit Ã‚Â»\n\nStars: Zachary Gordon, Devon Bostick and Robert Capron \n\n[img]http://leetleech.org/images/95521316153253938506.png[/img]\n\n[img]http://img560.imageshack.us/img560/2404/vlcsnap2011053118h10m14.png[/img]\n\n[img]http://img88.imageshack.us/img88/4954/vlcsnap2011053118h09m43.png[/img]\n\n[img]http://img508.imageshack.us/img508/6426/vlcsnap2011053118h10m39.png[/img]\n\nSource Used \n\nDiary of a Wimpy Kid Roderick Rules 2011 BluRay 1080p DTS x264-CHD .....Thanks \n\nNot expecting many to want this but alot of work goes into these 720ps alot of hrs thats why i dont do them so often \n\nAnyway this is only getting released here so if you want it ....Enjoy ! :ras:\n\nGreetz to IMAGiNE,Flawl3ss,DiLLoN,BDK,NOiR,TOXiCiNK,THC,Ez,Rx,Boobyblue,TaRiQ786,LKRG,CrEwSaDe\n\n[img]http://img411.imageshack.us/img411/6898/sig1n.jpg[/img]\n\n","torrent":{"xt":"urn:btih:8353cb23fe5aa87eea1075aba7514c95d113ea45","amp;dn":"Diary+Of+A+Wimpy+Kid+2+Roderick+Rules+720p+XViD+BRRip+-+DTRG","amp;tr":["udp%3A%2F%2Ftracker.openbittorrent.com%3A80","udp%3A%2F%2Fopen.demonii.com%3A1337","udp%3A%2F%2Ftracker.coppersurfer.tk%3A6969","udp%3A%2F%2Fexodus.desync.com%3A6969"],"infoHash":"8353cb23fe5aa87eea1075aba7514c95d113ea45","infoHashBuffer":{"type":"Buffer","data":[131,83,203,35,254,90,168,126,234,16,117,171,167,81,76,149,209,19,234,69]},"announce":[],"urlList":[]}}